<?xml version="1.0" encoding="UTF-8"?>
<svg width="888" height="342" viewBox="0 0 888 342" fill="none" xmlns="http://www.w3.org/2000/svg">
  <path d="M435.178 236.285C523.622 236.285 595.066 229.684 595.066 221.585C595.066 213.487 523.622 206.886 435.178 206.886C346.734 206.886 275.291 213.487 275.291 221.585C275.291 229.684 346.734 236.285 435.178 236.285Z" fill="#E6E6E6"/>
  <path d="M479.937 208.167H383.873V307.158H479.937V208.167Z" fill="#3B82F6"/>
  <path d="M434.438 251.445C445.027 251.445 453.61 242.862 453.61 232.273C453.61 221.684 445.027 213.101 434.438 213.101C423.849 213.101 415.266 221.684 415.266 232.273C415.266 242.862 423.849 251.445 434.438 251.445Z" fill="white"/>
  <path d="M434.438 302.224C445.027 302.224 453.61 293.641 453.61 283.052C453.61 272.463 445.027 263.88 434.438 263.88C423.849 263.88 415.266 272.463 415.266 283.052C415.266 293.641 423.849 302.224 434.438 302.224Z" fill="white"/>
  <path d="M479.937 208.167H432.905V307.158H479.937V208.167Z" fill="#2563EB"/>
  <path d="M453.61 232.273C453.61 242.862 445.027 251.445 434.438 251.445V213.101C445.027 213.101 453.61 221.684 453.61 232.273Z" fill="#F2F2F2"/>
  <path d="M453.61 283.052C453.61 293.641 445.027 302.224 434.438 302.224V263.88C445.027 263.88 453.61 272.463 453.61 283.052Z" fill="#F2F2F2"/>
  <path d="M678.067 193.116H575.067V199.116H678.067V193.116Z" fill="#F2F2F2"/>
  <path d="M678.067 208.116H575.067V214.116H678.067V208.116Z" fill="#F2F2F2"/>
  <path d="M678.067 223.116H575.067V229.116H678.067V223.116Z" fill="#F2F2F2"/>
  <path d="M678.067 238.116H575.067V244.116H678.067V238.116Z" fill="#F2F2F2"/>
  <path d="M678.067 253.116H575.067V259.116H678.067V253.116Z" fill="#F2F2F2"/>
  <path d="M678.067 268.116H575.067V274.116H678.067V268.116Z" fill="#F2F2F2"/>
  <path d="M678.067 283.116H575.067V289.116H678.067V283.116Z" fill="#F2F2F2"/>
  <path d="M678.067 298.116H575.067V304.116H678.067V298.116Z" fill="#F2F2F2"/>
  <path d="M289.067 193.116H186.067V199.116H289.067V193.116Z" fill="#F2F2F2"/>
  <path d="M289.067 208.116H186.067V214.116H289.067V208.116Z" fill="#F2F2F2"/>
  <path d="M289.067 223.116H186.067V229.116H289.067V223.116Z" fill="#F2F2F2"/>
  <path d="M289.067 238.116H186.067V244.116H289.067V238.116Z" fill="#F2F2F2"/>
  <path d="M289.067 253.116H186.067V259.116H289.067V253.116Z" fill="#F2F2F2"/>
  <path d="M289.067 268.116H186.067V274.116H289.067V268.116Z" fill="#F2F2F2"/>
  <path d="M289.067 283.116H186.067V289.116H289.067V283.116Z" fill="#F2F2F2"/>
  <path d="M289.067 298.116H186.067V304.116H289.067V298.116Z" fill="#F2F2F2"/>
  <path d="M561.067 131.116H458.067V137.116H561.067V131.116Z" fill="#F2F2F2"/>
  <path d="M561.067 146.116H458.067V152.116H561.067V146.116Z" fill="#F2F2F2"/>
  <path d="M561.067 161.116H458.067V167.116H561.067V161.116Z" fill="#F2F2F2"/>
  <path d="M561.067 176.116H458.067V182.116H561.067V176.116Z" fill="#F2F2F2"/>
  <path d="M406.067 131.116H303.067V137.116H406.067V131.116Z" fill="#F2F2F2"/>
  <path d="M406.067 146.116H303.067V152.116H406.067V146.116Z" fill="#F2F2F2"/>
  <path d="M406.067 161.116H303.067V167.116H406.067V161.116Z" fill="#F2F2F2"/>
  <path d="M406.067 176.116H303.067V182.116H406.067V176.116Z" fill="#F2F2F2"/>
  <path d="M561.067 69.1157H458.067V75.1157H561.067V69.1157Z" fill="#F2F2F2"/>
  <path d="M561.067 84.1157H458.067V90.1157H561.067V84.1157Z" fill="#F2F2F2"/>
  <path d="M561.067 99.1157H458.067V105.116H561.067V99.1157Z" fill="#F2F2F2"/>
  <path d="M561.067 114.116H458.067V120.116H561.067V114.116Z" fill="#F2F2F2"/>
  <path d="M406.067 69.1157H303.067V75.1157H406.067V69.1157Z" fill="#F2F2F2"/>
  <path d="M406.067 84.1157H303.067V90.1157H406.067V84.1157Z" fill="#F2F2F2"/>
  <path d="M406.067 99.1157H303.067V105.116H406.067V99.1157Z" fill="#F2F2F2"/>
  <path d="M406.067 114.116H303.067V120.116H406.067V114.116Z" fill="#F2F2F2"/>
  <path d="M561.067 7.11572H458.067V13.1157H561.067V7.11572Z" fill="#F2F2F2"/>
  <path d="M561.067 22.1157H458.067V28.1157H561.067V22.1157Z" fill="#F2F2F2"/>
  <path d="M561.067 37.1157H458.067V43.1157H561.067V37.1157Z" fill="#F2F2F2"/>
  <path d="M561.067 52.1157H458.067V58.1157H561.067V52.1157Z" fill="#F2F2F2"/>
  <path d="M406.067 7.11572H303.067V13.1157H406.067V7.11572Z" fill="#F2F2F2"/>
  <path d="M406.067 22.1157H303.067V28.1157H406.067V22.1157Z" fill="#F2F2F2"/>
  <path d="M406.067 37.1157H303.067V43.1157H406.067V37.1157Z" fill="#F2F2F2"/>
  <path d="M406.067 52.1157H303.067V58.1157H406.067V52.1157Z" fill="#F2F2F2"/>
</svg>
